<svg width="290" height="74" viewBox="0 0 290 74" fill="none" xmlns="http://www.w3.org/2000/svg">
<path fill-rule="evenodd" clip-rule="evenodd" d="M99.3144 0.0290527H59.8436L21.2233 30.4862L25.4517 33.8212L52.7581 12.2858L53.1754 12.5503C53.7589 12.9205 54.3062 13.3248 54.8449 13.734C56.4878 14.9839 57.9829 16.3558 59.3297 17.8087C63.6706 22.494 66.3284 27.9339 67.0229 33.7144C67.0274 33.7545 67.0335 33.7946 67.038 33.8347L67.0906 34.284L67.133 34.8156C67.2843 36.7201 67.2151 38.636 66.9272 40.531L66.8697 40.9073L72.0431 44.9866L72.3859 43.5285C72.9084 41.3056 73.1684 39.0453 73.1684 36.7847C73.1684 32.2464 72.1168 27.7463 70.0382 23.5135L69.8978 23.2274L99.3144 0.0290527ZM84.9085 4.72351L67.164 18.7145L66.7728 18.1894C64.2896 14.8551 61.1419 11.8387 57.474 9.27297L56.9993 8.9409L62.3479 4.72351H84.9085ZM16.9953 32.3005L12.6515 35.7258L17.9363 39.8933L26.1345 46.267L33.5438 40.6394L41.2454 46.3818L60.9216 30.3088L60.735 29.8527C60.2757 28.7298 59.735 27.6278 59.1196 26.5528L58.5308 25.5242C52.7475 30.0863 47.4318 34.6382 41.6478 39.1998L41.237 39.5236L33.5046 33.7578L26.2513 39.5557L22.28 36.468L16.9953 32.3005ZM59.8398 73.5413H99.3148L55.7238 39.1644L51.6405 42.6142L62.7225 51.3539L62.5179 51.6609C55.623 61.9887 42.4158 68.5263 27.6039 68.8242L26.6132 68.8438H12.0547L32.9688 52.3509L43.3268 60.5185L43.9867 60.2109C45.1892 59.6514 46.3582 59.0461 47.4787 58.389L48.3986 57.8501L32.9688 45.6812L1.88086 70.1981V73.5413L27.6523 73.541C36.2404 73.3834 44.5543 71.3782 51.7749 67.7068L52.1801 67.5008L59.8398 73.5413ZM67.1629 54.8546L84.9019 68.8443H62.3408L56.996 64.6301L57.4705 64.2984C61.1392 61.7316 64.2865 58.7141 66.772 55.3797L67.1629 54.8546ZM41.9315 7.10662L46.4816 3.51894L45.1507 3.06135C39.2731 1.04057 32.9576 0.0290527 26.5484 0.0290527H1.8825L1.88086 52.4088L13.582 43.1814L9.35353 39.8471L7.85947 41.0257L7.83537 4.72549L27.6039 4.74581C32.3033 4.84162 36.9496 5.57269 41.3294 6.92126L41.9315 7.10662Z" fill="#FEFEFE"/>
<path fill-rule="evenodd" clip-rule="evenodd" d="M52.8653 14.5855H52.8649L26.3587 35.2249L19.4688 29.8598L57.7794 0.0290527H102.574L72.0905 23.7646L68.4304 26.6145L66.6015 17.3085L67.5335 16.583L79.0787 7.59575H61.8426L59.7299 9.23998H59.7302L52.8653 14.5855ZM42.3132 9.17162L42.8985 8.8026L42.393 9.19606L42.3132 9.17162Z" fill="#FEFEFE"/>
<path fill-rule="evenodd" clip-rule="evenodd" d="M48.9786 67.9774L45.4563 65.2345C48.3667 64.0241 51.0689 62.524 53.4995 60.7682L60.1828 65.9724L79.0738 65.972L67.5328 56.986L49.9031 43.2581L56.5557 37.708L102.575 73.5405H56.1231L48.9786 67.9774ZM34.6702 56.8366L26.6035 50.7017L33.4937 45.3368L49.6189 57.7471C46.8144 59.3703 44.3884 60.6718 41.3758 62.0572L34.6702 56.8366Z" fill="#FEFEFE"/>
<path fill-rule="evenodd" clip-rule="evenodd" d="M10.5125 6.59873H10.5117L10.5125 7.6293V45.602L0 53.933V0.0290527H10.5125V6.59873ZM10.5125 73.541H0V71.6383L10.5125 63.4146V73.541Z" fill="#FEFEFE"/>
<path fill-rule="evenodd" clip-rule="evenodd" d="M120.845 0.0285645H123.659V73.5408H120.845V0.0285645Z" fill="#FEFEFE"/>
<path d="M148.129 6.89277H149.936L155.64 0H165.31L156.508 9.37852L166.178 19.2333H156.461L149.936 12.1992H148.129V19.2333H140.078V0H148.129V6.89277ZM198.143 19.2333H189.623L188.145 16.0424H178.991L177.535 19.2333H169.109L178.92 0H188.332L198.143 19.2333ZM181.267 11.071H185.867L183.567 6.04657L181.267 11.071ZM225.179 4.76013L213.467 13.9269H225.179V19.2333H202.835V14.491L214.523 5.3064H202.811V0H225.179V4.76013ZM258.881 19.2333H250.361L248.882 16.0424H239.728L238.273 19.2333H229.847L239.658 0H249.07L258.881 19.2333ZM242.005 11.071H246.605L244.305 6.04657L242.005 11.071ZM290 19.2333H282.138L272.444 9.67846V19.2333H264.393V0H272.257L281.95 9.55507V0H290V19.2333Z" fill="#FEFEFE"/>
<path d="M151.309 25.142C155.17 25.142 158.268 26.0138 160.602 27.7644C162.935 29.5149 164.102 31.8385 164.102 34.7306C164.102 37.6109 162.935 39.9229 160.594 41.6732C158.253 43.4237 155.155 44.3018 151.309 44.3018H140.078V25.142H151.309ZM147.631 30.6388V38.8048H151.089C152.777 38.8048 154.062 38.4302 154.942 37.6809C155.823 36.9317 156.264 35.9484 156.264 34.7306C156.264 33.4898 155.823 32.4945 154.942 31.7508C154.062 31.0076 152.777 30.6388 151.089 30.6388H147.631ZM176.415 44.3018H168.862V25.142H176.415V44.3018ZM194.475 24.7908C198.175 24.7908 201.126 25.6219 203.328 27.2843L198.044 31.429C196.942 30.7265 195.576 30.3751 193.947 30.3751C192.45 30.3751 191.231 30.7793 190.292 31.5872C189.352 32.3949 188.882 33.4429 188.882 34.7306C188.882 36.2407 189.396 37.3766 190.423 38.1374C191.451 38.8987 192.692 39.2791 194.145 39.2791C195.51 39.2791 196.582 39.1212 197.353 38.8048C198.124 38.4892 198.681 37.9677 199.033 37.2423H193.507V33.0799H206.213C206.33 33.6533 206.389 34.3561 206.389 35.1877C206.389 36.5103 206.147 37.7101 205.655 38.7935C205.163 39.8764 204.517 40.7718 203.725 41.4801C202.931 42.1886 202.014 42.7858 200.972 43.2714C199.929 43.7576 198.872 44.1085 197.801 44.3196C196.729 44.5305 195.65 44.6354 194.564 44.6354C192.552 44.6354 190.703 44.3781 189.014 43.8687C187.326 43.3592 185.916 42.6627 184.779 41.7731C183.641 40.8833 182.753 39.8295 182.122 38.618C181.491 37.4057 181.175 36.1119 181.175 34.7306C181.175 31.8038 182.416 29.4153 184.897 27.5652C187.377 25.7156 190.57 24.7908 194.475 24.7908ZM218.701 44.3018H211.148V25.142H218.701V44.3018ZM243.764 30.6564H237.047V44.3018H229.495V30.6564H222.801V25.142H243.764V30.6564ZM270.148 44.3018H262.154L260.767 41.1233H252.179L250.813 44.3018H242.908L252.113 25.142H260.943L270.148 44.3018ZM254.315 36.1706H258.631L256.472 31.1656L254.315 36.1706ZM290 44.3018H273.96V25.142H281.513V38.7874H290V44.3018Z" fill="#FEFEFE"/>
<path d="M180.289 73.5407H169.438L164.665 61.0214L159.865 73.5407H149.014L140.078 50.1926H149.569L154.591 65.0871L159.836 50.1926H169.605L174.849 65.0871L179.873 50.1926H189.252L180.289 73.5407ZM219.597 73.5407H194.788V50.1926H219.653V56.2919H204.334V58.7532H218.432V64.8523H204.334V67.4413H219.597V73.5407ZM251.774 73.5407H226.965V50.1926H251.83V56.2919H236.511V58.7532H250.609V64.8523H236.511V67.4413H251.774V73.5407ZM268.66 58.5602H270.797L277.54 50.1926H288.973L278.567 61.5777L290 73.5407H278.512L270.797 65.0017H268.66V73.5407H259.141V50.1926H268.66V58.5602Z" fill="#FEFEFE"/>
</svg>
