<svg width="201" height="46" viewBox="0 0 201 46" fill="none" xmlns="http://www.w3.org/2000/svg">
<mask id="mask0_373_393" style="mask-type:alpha" maskUnits="userSpaceOnUse" x="0" y="0" width="201" height="46">
<path d="M4.37894 33.2106C6.94086 37.1582 10.4558 40.3969 14.5994 42.628C18.743 44.859 23.3817 46.0105 28.0877 45.9762C25.3741 42.1743 21.8273 39.043 17.7183 36.8217C13.6105 34.6036 9.04465 33.3676 4.37894 33.2106ZM0 19.6772C0.186589 22.4557 0.754392 25.1954 1.68745 27.8192C6.39545 27.8192 13.6599 29.5066 19.8276 32.8815C25.9952 36.2564 31.3951 41.3188 34.0528 45.2421C36.757 44.5715 39.3571 43.5354 41.7814 42.1625V9.09686C41.7695 7.4495 41.3137 5.83581 40.462 4.42566C39.6103 3.01551 38.3942 1.86106 36.9416 1.08384C35.4891 0.306626 33.8539 -0.0646135 32.2081 0.00920528C30.5624 0.0830241 28.967 0.599171 27.5899 1.50331L0 19.6772ZM33.7491 7.02129C34.0577 7.17153 34.3106 7.41592 34.4714 7.7192C34.6321 8.02249 34.6924 8.369 34.6434 8.70874V35.708C31.5293 31.8867 27.664 28.7451 23.2869 26.4776C19.0105 24.0658 14.2772 22.5742 9.39068 22.0987L31.8929 7.1816C32.1449 6.96118 32.4602 6.82614 32.7936 6.79583C33.127 6.76552 33.4615 6.84149 33.7491 7.01285V7.02129Z" fill="white"/>
<path d="M181.213 6.51601H194.628V1.1499H181.213V6.51601ZM200.888 11.4349V38.9911H194.628V17.2229L184.335 38.9911H174.944V11.4349H181.213V33.1947L191.506 11.4349H200.888ZM151.952 10.9624C156.424 10.9624 159.774 12.979 161.343 16.337V11.4349H167.966V38.9911H161.343V34.0637C159.774 37.4386 156.331 39.4382 151.952 39.4382C145.203 39.4382 139.828 33.355 139.828 25.213C139.828 16.8938 145.245 10.9878 151.952 10.9878V10.9624ZM153.918 16.9613C149.362 16.9613 146.434 20.4966 146.434 25.1961C146.434 30.1572 149.615 33.4225 153.918 33.4225C158.441 33.4225 161.343 29.8872 161.343 25.1961C161.343 20.505 158.483 16.9782 153.918 16.9782V16.9613ZM129.18 17.4929V38.9657H122.565V17.5435H114.061V11.4349H137.685V17.5435L129.18 17.4929ZM105.598 29.9969L111.141 33.0343C109.091 37.3289 104.594 39.5901 99.0675 39.5901C91.1196 39.5901 85.3823 33.6418 85.3823 25.2467C85.3823 17.2398 90.7484 10.9034 99.0675 10.9034C107.125 10.9034 112.263 16.8601 112.263 25.2467C112.279 25.9932 112.248 26.74 112.171 27.4826H91.9211C92.5877 31.195 95.0007 33.7853 99.3459 33.7853C100.643 33.8294 101.926 33.4946 103.036 32.8218C104.146 32.1491 105.036 31.1674 105.598 29.9969ZM99.0506 16.6998C97.3439 16.5932 95.6603 17.1385 94.34 18.2254C93.0198 19.3123 92.1613 20.8598 91.938 22.5553H105.716C105.244 18.9357 102.966 16.6998 99.0759 16.6998H99.0506ZM75.2828 11.4687H64.7869L56.3496 39.0248H62.8294L69.8492 15.4933L76.8606 39.0248H83.7539L75.2828 11.4687Z" fill="white"/>
</mask>
<g mask="url(#mask0_373_393)">
<rect x="-16.1006" y="-24.1501" width="235.75" height="100.05" fill="white"/>
</g>
</svg>
