<svg width="171" height="39" viewBox="0 0 171 39" fill="none" xmlns="http://www.w3.org/2000/svg">
<mask id="mask0_332_362" style="mask-type:alpha" maskUnits="userSpaceOnUse" x="0" y="0" width="171" height="39">
<path d="M3.73471 28.0414C5.91971 31.3746 8.91751 34.1092 12.4515 35.993C15.9855 37.8768 19.9418 38.849 23.9554 38.8201C21.641 35.6099 18.616 32.9661 15.1115 31.0905C11.6081 29.2176 7.71399 28.174 3.73471 28.0414ZM0 16.6145C0.159138 18.9605 0.643405 21.2737 1.43919 23.4892C5.45454 23.4892 11.6503 24.914 16.9105 27.7636C22.1708 30.6132 26.7762 34.8876 29.0429 38.2003C31.3492 37.634 33.5668 36.7592 35.6344 35.6V7.68094C35.6243 6.29 35.2356 4.92748 34.5092 3.73681C33.7828 2.54615 32.7456 1.57139 31.5067 0.915146C30.2679 0.2589 28.8733 -0.0545565 27.4696 0.00777249C26.066 0.0701015 24.7053 0.505911 23.5308 1.26932L0 16.6145ZM28.7839 5.92844C29.0471 6.05529 29.2628 6.26164 29.3999 6.51772C29.537 6.7738 29.5884 7.06638 29.5466 7.35324V30.1501C26.8906 26.9236 23.594 24.2709 19.8609 22.3564C16.2136 20.32 12.1768 19.0606 8.00911 18.6591L27.2008 6.06379C27.4157 5.87768 27.6846 5.76367 27.9689 5.73807C28.2533 5.71248 28.5386 5.77662 28.7839 5.92131V5.92844Z" fill="white"/>
<path d="M153.964 5.48035H165.406V0.949463H153.964V5.48035ZM170.745 9.63366V32.9007H165.406V14.5207L156.627 32.9007H148.618V9.63366H153.964V28.0065L162.743 9.63366H170.745ZM129.009 9.23471C132.822 9.23471 135.679 10.9374 137.018 13.7727V9.63366H142.666V32.9007H137.018V28.7403C135.679 31.5899 132.743 33.2783 129.009 33.2783C123.252 33.2783 118.668 28.1419 118.668 21.2672C118.668 14.2429 123.288 9.25608 129.009 9.25608V9.23471ZM130.685 14.2999C126.799 14.2999 124.302 17.2849 124.302 21.253C124.302 25.4419 127.015 28.1989 130.685 28.1989C134.542 28.1989 137.018 25.2139 137.018 21.253C137.018 17.292 134.578 14.3141 130.685 14.3141V14.2999ZM109.587 14.7487V32.8794H103.945V14.7915H96.6915V9.63366H116.84V14.7915L109.587 14.7487ZM89.474 25.3065L94.2017 27.8712C92.4531 31.4973 88.6177 33.4065 83.9043 33.4065C77.1257 33.4065 72.2325 28.3841 72.2325 21.2957C72.2325 14.535 76.8091 9.18484 83.9043 9.18484C90.7764 9.18484 95.1588 14.2144 95.1588 21.2957C95.1719 21.926 95.1455 22.5565 95.0796 23.1836H77.8093C78.3778 26.3181 80.4359 28.5052 84.1418 28.5052C85.2484 28.5425 86.3419 28.2598 87.2889 27.6917C88.2358 27.1237 88.9951 26.2948 89.474 25.3065ZM83.8899 14.0791C82.4342 13.9891 80.9984 14.4495 79.8723 15.3672C78.7463 16.2849 78.0141 17.5916 77.8237 19.0231H89.5747C89.1717 15.9669 87.2288 14.0791 83.9115 14.0791H83.8899ZM63.6189 9.66215H54.6671L47.4712 32.9292H52.9977L58.9847 13.0603L64.9646 32.9292H70.8437L63.6189 9.66215Z" fill="white"/>
</mask>
<g mask="url(#mask0_332_362)">
<rect x="-4.74707" y="-19.938" width="201.246" height="84.5531" fill="#FE5000"/>
</g>
</svg>
