<svg width="145" height="47" viewBox="0 0 145 47" fill="none" xmlns="http://www.w3.org/2000/svg">
<path fill-rule="evenodd" clip-rule="evenodd" d="M49.8019 0.0183105H30.16L10.9414 19.4834L13.0456 21.6147L26.634 7.85153L26.8417 8.02069C27.1321 8.2572 27.4044 8.5155 27.6725 8.77712C28.49 9.57596 29.234 10.4527 29.9042 11.3813C32.0643 14.3756 33.3871 17.8523 33.7326 21.5466C33.7349 21.5722 33.7379 21.5978 33.7401 21.6234L33.7664 21.9106L33.7874 22.2503C33.8628 23.4676 33.8283 24.692 33.685 25.903L33.6563 26.1435L36.2308 28.7507L36.4013 27.8187C36.6615 26.3981 36.7908 24.9535 36.7908 23.5088C36.7908 20.6084 36.2675 17.7323 35.2331 15.0272L35.1632 14.8443L49.8019 0.0183105ZM42.633 3.01847L33.8028 11.9602L33.6081 11.6245C32.3725 9.49365 30.8061 7.56586 28.9807 5.92609L28.7446 5.7138L31.4062 3.01847H42.633ZM8.83731 20.6429L6.67571 22.832L9.3057 25.4955L13.3852 29.5688L17.0724 25.9723L20.905 29.6423L30.6965 19.37L30.6036 19.0785C30.375 18.3609 30.1059 17.6566 29.7997 16.9697L29.5067 16.3122C26.6287 19.2279 23.9835 22.1369 21.1052 25.0522L20.9008 25.2592L17.0529 21.5742L13.4435 25.2797L11.4671 23.3064L8.83731 20.6429ZM30.158 46.9999H49.8021L28.1098 25.0296L26.0779 27.2344L31.5926 32.8199L31.4908 33.0161C28.0597 39.6167 21.4874 43.7948 14.1165 43.9852L13.6235 43.9978H6.37875L16.7862 33.4571L21.9407 38.677L22.2691 38.4804C22.8676 38.1228 23.4492 37.736 24.0068 37.3161L24.4646 36.9716L16.7862 29.1945L1.31592 44.8633V46.9999L14.1406 46.9997C18.4143 46.8989 22.5515 45.6174 26.1447 43.2711L26.3464 43.1394L30.158 46.9999ZM33.8023 35.0572L42.6298 43.9979H31.4026L28.7429 41.3047L28.9791 41.0927C30.8048 39.4523 32.3709 37.5238 33.6078 35.3928L33.8023 35.0572ZM21.2463 4.54155L23.5106 2.24866L22.8483 1.95625C19.9235 0.664784 16.7807 0.0183105 13.5913 0.0183105H1.31671L1.31592 33.4941L7.13876 27.5969L5.03454 25.466L4.29106 26.2192L4.27899 3.01978L14.1165 3.03281C16.4551 3.09404 18.7672 3.56121 20.9468 4.42312L21.2463 4.54155Z" fill="#008A71"/>
<path fill-rule="evenodd" clip-rule="evenodd" d="M26.6865 9.32134H26.6863L13.496 22.5119L10.0674 19.0831L29.132 0.0183105H51.4229L36.2535 15.1877L34.4322 17.009L33.5221 11.0615L33.9859 10.5978L39.7311 4.85417H31.1539L30.1025 5.90492H30.1027L26.6865 9.32134ZM21.4354 5.86127L21.7267 5.62546L21.4752 5.87693L21.4354 5.86127Z" fill="#008A71"/>
<path fill-rule="evenodd" clip-rule="evenodd" d="M24.7527 43.4441L22.9998 41.6911C24.4482 40.9175 25.793 39.9588 27.0025 38.8367L30.3283 42.1626L39.729 42.1625L33.9858 36.4195L25.2127 27.646L28.5233 24.0989L51.4238 46.9995H28.308L24.7527 43.4441ZM17.6324 36.324L13.6182 32.4031L17.0469 28.9745L25.0713 36.9059C23.6757 37.9433 22.4685 38.7751 20.9693 39.6605L17.6324 36.324Z" fill="#008A71"/>
<path fill-rule="evenodd" clip-rule="evenodd" d="M5.61118 4.2172H5.61083L5.61118 4.87593V29.1441L0.379883 34.4684V0.0185547H5.61118V4.2172ZM5.61118 46.9999H0.379883V45.7839L5.61118 40.5281V46.9999Z" fill="#008A71"/>
<path fill-rule="evenodd" clip-rule="evenodd" d="M60.5166 0.0180664H61.9171V46.9996H60.5166V0.0180664Z" fill="#008A71"/>
<path d="M74.093 4.40516H74.9927L77.8309 0H82.6431L78.2631 5.99376L83.075 12.2919H78.2393L74.9927 7.79648H74.093V12.2919H70.0869V0H74.093V4.40516ZM98.9818 12.2919H94.7421L94.0061 10.2527H89.4511L88.7266 12.2919H84.5335L89.4156 0H94.0996L98.9818 12.2919ZM90.5838 7.07548H92.8729L91.7284 3.86434L90.5838 7.07548ZM112.436 3.04214L106.607 8.90059H112.436V12.2919H101.316V9.26122L107.133 3.39132H101.305V0H112.436V3.04214ZM129.207 12.2919H124.967L124.231 10.2527H119.676L118.952 12.2919H114.759L119.641 0H124.324L129.207 12.2919ZM120.809 7.07548H123.098L121.953 3.86434L120.809 7.07548ZM144.693 12.2919H140.78L135.956 6.18549V12.2919H131.95V0H135.863L140.687 6.1066V0H144.693V12.2919Z" fill="#008A71"/>
<path d="M75.6757 16.068C77.5968 16.068 79.1386 16.6252 80.3 17.744C81.4614 18.8627 82.0422 20.3478 82.0422 22.1961C82.0422 24.0368 81.4614 25.5145 80.2963 26.6331C79.1312 27.7519 77.5899 28.3131 75.6757 28.3131H70.0869V16.068H75.6757ZM73.8454 19.5809V24.7999H75.5661C76.4063 24.7999 77.0454 24.5605 77.4838 24.0816C77.9222 23.6027 78.1414 22.9743 78.1414 22.1961C78.1414 21.4031 77.9222 20.767 77.4838 20.2917C77.0454 19.8167 76.4063 19.5809 75.5661 19.5809H73.8454ZM88.1695 28.3131H84.4107V16.068H88.1695V28.3131ZM97.1567 15.8435C98.9976 15.8435 100.466 16.3748 101.562 17.4373L98.9323 20.0861C98.3841 19.6371 97.7045 19.4125 96.8937 19.4125C96.1486 19.4125 95.5423 19.6708 95.0747 20.1872C94.6069 20.7033 94.3732 21.3732 94.3732 22.1961C94.3732 23.1612 94.6289 23.8871 95.1402 24.3733C95.6519 24.8599 96.2689 25.1031 96.9925 25.1031C97.6717 25.1031 98.2052 25.0021 98.5886 24.7999C98.9722 24.5982 99.2496 24.2649 99.4249 23.8013H96.6748V21.1411H102.998C103.056 21.5076 103.085 21.9567 103.085 22.4881C103.085 23.3335 102.965 24.1003 102.72 24.7927C102.475 25.4848 102.154 26.0571 101.759 26.5097C101.365 26.9625 100.908 27.3442 100.389 27.6545C99.8706 27.9652 99.3447 28.1895 98.8116 28.3243C98.2783 28.4591 97.7412 28.5262 97.2006 28.5262C96.1997 28.5262 95.2792 28.3618 94.4391 28.0362C93.5989 27.7106 92.8974 27.2655 92.3313 26.6969C91.7653 26.1282 91.3233 25.4549 91.0092 24.6805C90.6953 23.9058 90.5379 23.0789 90.5379 22.1961C90.5379 20.3255 91.1553 18.7991 92.3901 17.6167C93.6244 16.4346 95.2133 15.8435 97.1567 15.8435ZM109.212 28.3131H105.454V16.068H109.212V28.3131ZM121.684 19.5923H118.342V28.3131H114.583V19.5923H111.252V16.068H121.684V19.5923ZM134.813 28.3131H130.836L130.145 26.2817H125.872L125.192 28.3131H121.258L125.839 16.068H130.233L134.813 28.3131ZM126.935 23.1163H129.082L128.008 19.9177L126.935 23.1163ZM144.693 28.3131H136.711V16.068H140.469V24.7888H144.693V28.3131Z" fill="#008A71"/>
<path d="M90.0972 46.9996H84.6973L82.3221 38.9985L79.9332 46.9996H74.5337L70.0869 32.0779H74.8096L77.3091 41.5969L79.9193 32.0779H84.7802L87.39 41.5969L89.8899 32.0779H94.5575L90.0972 46.9996ZM109.658 46.9996H97.312V32.0779H109.686V35.976H102.063V37.5489H109.078V41.4468H102.063V43.1015H109.658V46.9996ZM125.67 46.9996H113.324V32.0779H125.698V35.976H118.075V37.5489H125.09V41.4468H118.075V43.1015H125.67V46.9996ZM134.073 37.4256H135.137L138.492 32.0779H144.182L139.003 39.3541L144.693 46.9996H138.976L135.137 41.5423H134.073V46.9996H129.336V32.0779H134.073V37.4256Z" fill="#008A71"/>
</svg>
