<svg width="24" height="24" viewBox="0 0 24 24" fill="none" xmlns="http://www.w3.org/2000/svg">
<path d="M3.5 19.9856C3.5 20.7812 3.81607 21.5443 4.37868 22.1069C4.94129 22.6695 5.70435 22.9856 6.5 22.9856H10.8125C10.8622 22.9856 10.9099 22.9658 10.9451 22.9307C10.9802 22.8955 11 22.8478 11 22.7981V14.1731C11 14.1234 10.9802 14.0757 10.9451 14.0405C10.9099 14.0053 10.8622 13.9856 10.8125 13.9856H3.875C3.77554 13.9856 3.68016 14.0251 3.60984 14.0954C3.53951 14.1658 3.5 14.2611 3.5 14.3606V19.9856ZM11 12.2981V7.23559H12.5V12.2981C12.5 12.3478 12.5198 12.3955 12.5549 12.4307C12.5901 12.4658 12.6378 12.4856 12.6875 12.4856H19.25C19.5055 12.4856 19.7591 12.442 20 12.3567C20.4383 12.2011 20.8177 11.9137 21.0863 11.5339C21.3548 11.1542 21.4993 10.7007 21.5 10.2356V9.48559C21.5 8.88885 21.2629 8.31656 20.841 7.8946C20.419 7.47264 19.8467 7.23559 19.25 7.23559H17.3497C17.3334 7.23533 17.3174 7.23081 17.3033 7.22247C17.2893 7.21414 17.2777 7.20228 17.2696 7.18807C17.2616 7.17386 17.2574 7.1578 17.2574 7.14147C17.2575 7.12514 17.2618 7.10911 17.27 7.09496C17.704 6.36225 17.8449 5.49257 17.6646 4.66029C17.4843 3.82801 16.996 3.09468 16.2976 2.60732C15.5992 2.11997 14.7425 1.91463 13.8991 2.03249C13.0557 2.15034 12.288 2.58266 11.75 3.24278C11.212 2.58266 10.4443 2.15034 9.60092 2.03249C8.75752 1.91463 7.90075 2.11997 7.2024 2.60732C6.50405 3.09468 6.01574 3.82801 5.8354 4.66029C5.65506 5.49257 5.79602 6.36225 6.23 7.09496C6.23817 7.10911 6.2425 7.12514 6.24257 7.14147C6.24263 7.1578 6.23843 7.17386 6.23038 7.18807C6.22233 7.20228 6.21071 7.21414 6.19666 7.22247C6.18262 7.23081 6.16664 7.23533 6.15031 7.23559H4.25C3.65326 7.23559 3.08097 7.47264 2.65901 7.8946C2.23705 8.31656 2 8.88885 2 9.48559V10.2356C2.00066 10.7007 2.14517 11.1542 2.41372 11.5339C2.68227 11.9137 3.0617 12.2011 3.5 12.3567C3.74085 12.442 3.99449 12.4856 4.25 12.4856H10.8125C10.8622 12.4856 10.9099 12.4658 10.9451 12.4307C10.9802 12.3955 11 12.3478 11 12.2981ZM12.5 5.36059C12.5 4.98975 12.61 4.62724 12.816 4.3189C13.022 4.01055 13.3149 3.77023 13.6575 3.62832C14.0001 3.4864 14.3771 3.44927 14.7408 3.52162C15.1045 3.59397 15.4386 3.77254 15.7008 4.03477C15.963 4.29699 16.1416 4.63108 16.214 4.9948C16.2863 5.35851 16.2492 5.73551 16.1073 6.07812C15.9654 6.42073 15.725 6.71357 15.4167 6.9196C15.1084 7.12562 14.7458 7.23559 14.375 7.23559H12.5V5.36059ZM8.99094 3.49028C9.24781 3.47186 9.50572 3.50656 9.7486 3.59222C9.99147 3.67787 10.2141 3.81263 10.4026 3.98811C10.5911 4.16359 10.7414 4.37602 10.8442 4.61215C10.947 4.84828 11 5.10306 11 5.36059V7.23559H9.125C8.64017 7.23435 8.17466 7.04535 7.82619 6.70826C7.47771 6.37117 7.27336 5.9122 7.25601 5.42768C7.23867 4.94315 7.40968 4.47075 7.73316 4.1096C8.05664 3.74846 8.50744 3.52666 8.99094 3.49075V3.49028ZM12.6875 22.9856H17C17.7956 22.9856 18.5587 22.6695 19.1213 22.1069C19.6839 21.5443 20 20.7812 20 19.9856V14.3606C20 14.2611 19.9605 14.1658 19.8902 14.0954C19.8198 14.0251 19.7245 13.9856 19.625 13.9856H12.6875C12.6378 13.9856 12.5901 14.0053 12.5549 14.0405C12.5198 14.0757 12.5 14.1234 12.5 14.1731V22.7981C12.5 22.8478 12.5198 22.8955 12.5549 22.9307C12.5901 22.9658 12.6378 22.9856 12.6875 22.9856Z" fill="#FE5000"/>
</svg>
